# xmcd
#
# Track frame offsets: 
#        150
#        16036
#        29949
#        46362
#        65700
#        77364
#        90469
#        106334
#        118726
#        132096
#        147006
#        166827
#        192870
#        202816
#        219797
#        240660
#        264725
#
# Disc length: 3723 seconds
#
# Revision: 1
# Processed by: cddbd v1.5.2PL0 Copyright (c) Steve Scherf et al.
# Submitted via: ExactAudioCopyFreeDBPlugin 1.0
#
DISCID=e00e8911
DTITLE=Willy DeVille - In New Orleans
DYEAR=2012
DGENRE=Blues Rock 
TTITLE0=Hello My Lover
TTITLE1=It Do Me Good
TTITLE2=Key To My Heart
TTITLE3=Beating Like A Tom-Tom
TTITLE4=Every Dog Has Its Day
TTITLE5=Big Blue Diamonds
TTITLE6=Teasin´ You
TTITLE7=Ruler Of My Heart
TTITLE8=Who Shot The La-La
TTITLE9=Junkers Blues
TTITLE10=Just Off Decatur Street
TTITLE11=Jump City (Live)
TTITLE12=Every Dog Has Its Day (Live)
TTITLE13=Hello My Lover (Live)
TTITLE14=Key To My Heart (Live)
TTITLE15=Iko Iko (Live)
TTITLE16=Meet The Boys On The Battlefront (Live)
EXTD=
EXTT0=
EXTT1=
EXTT2=
EXTT3=
EXTT4=
EXTT5=
EXTT6=
EXTT7=
EXTT8=
EXTT9=
EXTT10=
EXTT11=
EXTT12=
EXTT13=
EXTT14=
EXTT15=
EXTT16=
PLAYORDER=
